<svg width="12" height="7" viewBox="0 0 12 7" fill="none" xmlns="http://www.w3.org/2000/svg">
<path d="M11.8625 3.15752C11.8624 3.15738 11.8623 3.15721 11.8621 3.15706L9.41278 0.640932C9.22928 0.45244 8.9325 0.453142 8.74985 0.642577C8.56722 0.831989 8.56793 1.13835 8.75142 1.32687L10.3959 3.01616H0.46875C0.209859 3.01616 0 3.23279 0 3.50003C0 3.76727 0.209859 3.9839 0.46875 3.9839H10.3959L8.75144 5.67319C8.56795 5.86171 8.56725 6.16807 8.74987 6.35748C8.93252 6.54694 9.22933 6.5476 9.4128 6.35913L11.8621 3.843C11.8623 3.84285 11.8624 3.84268 11.8625 3.84254C12.0461 3.65339 12.0455 3.34604 11.8625 3.15752Z" fill="#4E5471"/>
</svg>
